<?xml version="1.0" standalone="no"?><svg xmlns="http://www.w3.org/2000/svg" viewBox="0 0 1440 320"><path fill="#c060a1" fill-opacity="1" d="M0,64L26.7,58.7C53.3,53,107,43,160,37.3C213.3,32,267,32,320,37.3C373.3,43,427,53,480,48C533.3,43,587,21,640,10.7C693.3,0,747,0,800,21.3C853.3,43,907,85,960,112C1013.3,139,1067,149,1120,133.3C1173.3,117,1227,75,1280,74.7C1333.3,75,1387,117,1413,138.7L1440,160L1440,320L1413.3,320C1386.7,320,1333,320,1280,320C1226.7,320,1173,320,1120,320C1066.7,320,1013,320,960,320C906.7,320,853,320,800,320C746.7,320,693,320,640,320C586.7,320,533,320,480,320C426.7,320,373,320,320,320C266.7,320,213,320,160,320C106.7,320,53,320,27,320L0,320Z"></path></svg>